<svg width="170" height="37" fill="none" xmlns="http://www.w3.org/2000/svg"><path d="M20.02 24.734v-.398c0-.28.144-.418.431-.418h1.744c.287 0 .431.139.431.418v.159c0 .505.103.85.308 1.036.205.186.581.278 1.128.278h.964c.534 0 .903-.1 1.108-.298.219-.2.328-.571.328-1.116v-.238a.964.964 0 00-.492-.877c-.314-.212-.711-.338-1.19-.378a15.19 15.19 0 01-1.56-.22 12.304 12.304 0 01-1.538-.437c-.478-.186-.882-.538-1.21-1.056-.315-.53-.472-1.208-.472-2.031v-.697c0-1.036.3-1.839.903-2.41.602-.57 1.436-.856 2.503-.856h2.051c1.08 0 1.922.285 2.524.856.601.571.902 1.374.902 2.41v.378c0 .28-.143.419-.43.419h-1.744c-.288 0-.431-.14-.431-.419v-.12c0-.517-.103-.869-.308-1.055-.205-.186-.581-.279-1.128-.279h-.8c-.561 0-.944.107-1.15.32-.19.198-.287.597-.287 1.194v.378c0 .624.561.983 1.683 1.076 1.162.093 2.195.318 3.098.677.478.199.875.557 1.19 1.075.328.505.492 1.155.492 1.952v.677c0 1.036-.301 1.839-.903 2.41-.602.57-1.436.856-2.503.856h-2.236c-1.067 0-1.901-.285-2.503-.856-.602-.571-.902-1.374-.902-2.41zM35.388 28h-2.339c-.26 0-.424-.14-.492-.418l-2.052-9.32c-.054-.28.048-.419.308-.419h1.97c.3 0 .465.14.492.419l.923 6.81h.164l1.457-6.81c.04-.28.198-.419.472-.419h1.805c.287 0 .458.14.513.419l1.416 6.81h.164l.943-6.81c.041-.28.206-.419.493-.419h1.97c.273 0 .375.14.307.419l-2.052 9.32c-.054.279-.218.418-.492.418h-2.339c-.273 0-.437-.14-.492-.418l-1.252-6.731h-.164l-1.23 6.73c-.042.28-.206.419-.493.419zm17.814 0h-4.535c-1.08 0-1.914-.279-2.502-.836-.588-.558-.883-1.361-.883-2.41V21.09c0-1.05.295-1.852.883-2.41.588-.558 1.422-.837 2.502-.837h1.621c1.08 0 1.915.28 2.503.837.588.558.882 1.36.882 2.41v2.529c0 .279-.143.418-.43.418h-5.15c-.164 0-.246.073-.246.219v.438c0 .412.089.71.267.896.191.173.506.26.943.26h4.145c.287 0 .43.145.43.437v1.315c0 .146-.034.252-.102.318-.055.053-.164.08-.328.08zm-5.109-5.656h2.79c.15 0 .226-.073.226-.219v-.956c0-.425-.089-.723-.267-.896-.178-.172-.485-.259-.923-.259h-.862c-.437 0-.745.087-.923.26-.178.172-.267.47-.267.895v.956c0 .146.076.22.226.22zM63.34 28h-4.535c-1.08 0-1.915-.279-2.503-.836-.588-.558-.882-1.361-.882-2.41V21.09c0-1.05.294-1.852.882-2.41.588-.558 1.423-.837 2.503-.837h1.62c1.081 0 1.916.28 2.504.837.588.558.882 1.36.882 2.41v2.529c0 .279-.144.418-.43.418h-5.15c-.165 0-.247.073-.247.219v.438c0 .412.09.71.267.896.192.173.506.26.944.26h4.144c.287 0 .43.145.43.437v1.315c0 .146-.033.252-.102.318-.054.053-.164.08-.328.08zm-5.11-5.656h2.79c.151 0 .226-.073.226-.219v-.956c0-.425-.088-.723-.266-.896-.178-.172-.486-.259-.923-.259h-.862c-.438 0-.745.087-.923.26-.178.172-.267.47-.267.895v.956c0 .146.075.22.226.22zm7.758-2.31h-.82c-.164 0-.28-.026-.349-.08-.055-.053-.082-.159-.082-.318v-1.374c0-.28.144-.419.43-.419h.821c.15 0 .226-.073.226-.218v-1.892c0-.28.15-.419.451-.419h1.724c.287 0 .43.14.43.419v1.892c0 .145.083.218.247.218h1.6c.287 0 .43.14.43.419v1.374c0 .146-.033.252-.102.319-.054.053-.164.08-.328.08h-1.6c-.164 0-.246.072-.246.218v4.401c0 .412.095.71.287.896.191.173.506.26.944.26h.82c.287 0 .431.139.431.418v1.374c0 .146-.034.252-.103.318-.054.053-.164.08-.328.08H69.62c-1.08 0-1.922-.279-2.524-.836-.588-.558-.882-1.355-.882-2.39v-4.52c0-.147-.075-.22-.226-.22zM84.889 28h-6.75c-.287 0-.43-.14-.43-.418V15.613c0-.279.143-.418.43-.418h1.744c.287 0 .43.14.43.418v9.957c0 .146.083.22.247.22h4.329c.273 0 .41.146.41.438v1.354c0 .279-.137.418-.41.418zm1.933-11.87v-1.732c0-.265.136-.398.41-.398h1.785c.273 0 .41.126.41.378v1.753c0 .265-.137.398-.41.398h-1.785c-.273 0-.41-.133-.41-.398zm0 11.452v-9.32c0-.28.136-.419.41-.419h1.764c.288 0 .431.14.431.419v9.32c0 .172-.034.285-.102.338-.055.053-.158.08-.308.08h-1.764c-.288 0-.431-.14-.431-.418zm7.141.418h-1.744c-.287 0-.431-.14-.431-.418v-9.32c0-.28.144-.419.43-.419h1.745c.287 0 .43.14.43.419v.657h.082c.301-.717.972-1.076 2.011-1.076h.656c2.148 0 3.221 1.083 3.221 3.247v6.492c0 .279-.15.418-.45.418h-1.724c-.287 0-.431-.14-.431-.418v-6.373c0-.425-.096-.724-.287-.896-.178-.186-.486-.279-.923-.279h-.739c-.944 0-1.416.505-1.416 1.514v6.034c0 .279-.143.418-.43.418zm14.554-10.157h1.99c.164 0 .274.047.328.14.055.093.035.212-.061.358l-2.729 4.362v.08l2.852 4.72c.082.132.089.251.02.358-.068.092-.191.139-.369.139h-1.764c-.233 0-.404-.027-.513-.08-.096-.053-.198-.166-.308-.338l-2.605-4.441a.631.631 0 010-.657l2.462-4.242c.15-.266.383-.399.697-.399zM104.701 28h-1.744c-.287 0-.43-.14-.43-.418V14.418c0-.279.143-.418.43-.418h1.744c.287 0 .431.14.431.418v13.164c0 .279-.144.418-.431.418zm11.887-3.266v-.398c0-.28.144-.418.431-.418h1.744c.287 0 .431.139.431.418v.159c0 .505.102.85.307 1.036.205.186.582.278 1.129.278h.964c.533 0 .903-.1 1.108-.298.219-.2.328-.571.328-1.116v-.238a.964.964 0 00-.492-.877c-.315-.212-.712-.338-1.19-.378a15 15 0 01-1.559-.22 12.223 12.223 0 01-1.539-.437c-.479-.186-.882-.538-1.211-1.056-.314-.53-.471-1.208-.471-2.031v-.697c0-1.036.3-1.839.902-2.41.602-.57 1.436-.856 2.503-.856h2.052c1.08 0 1.921.285 2.523.856.602.571.903 1.374.903 2.41v.378c0 .28-.144.419-.431.419h-1.744c-.287 0-.431-.14-.431-.419v-.12c0-.517-.102-.869-.307-1.055-.206-.186-.582-.279-1.129-.279h-.8c-.561 0-.944.107-1.149.32-.191.198-.287.597-.287 1.194v.378c0 .624.561.983 1.682 1.076 1.163.093 2.196.318 3.098.677.479.199.876.557 1.19 1.075.328.505.492 1.155.492 1.952v.677c0 1.036-.3 1.839-.902 2.41-.602.57-1.436.856-2.503.856h-2.236c-1.067 0-1.901-.285-2.503-.856-.602-.571-.903-1.374-.903-2.41zm11.408-4.7h-.821c-.164 0-.28-.026-.348-.08-.055-.053-.082-.159-.082-.318v-1.374c0-.28.143-.419.43-.419h.821c.151 0 .226-.073.226-.218v-1.892c0-.28.15-.419.451-.419h1.723c.288 0 .431.14.431.419v1.892c0 .145.082.218.246.218h1.601c.287 0 .43.14.43.419v1.374c0 .146-.034.252-.102.319-.055.053-.164.08-.328.08h-1.601c-.164 0-.246.072-.246.218v4.401c0 .412.096.71.287.896.192.173.506.26.944.26h.821c.287 0 .431.139.431.418v1.374c0 .146-.035.252-.103.318-.055.053-.164.08-.328.08h-1.252c-1.08 0-1.921-.279-2.523-.836-.588-.558-.882-1.355-.882-2.39v-4.52c0-.147-.075-.22-.226-.22zM138.778 28h-.677c-1.053 0-1.853-.279-2.401-.836-.533-.558-.8-1.361-.8-2.41v-6.492c0-.28.144-.419.431-.419h1.744c.287 0 .431.14.431.419v6.372c0 .425.089.73.267.916.191.173.499.26.923.26h.759c.944 0 1.415-.505 1.415-1.514v-6.034c0-.28.144-.419.431-.419h1.724c.3 0 .451.14.451.419v9.32c0 .279-.151.418-.451.418h-1.724c-.287 0-.431-.14-.431-.418v-.657h-.082c-.15.358-.417.63-.8.816a2.91 2.91 0 01-1.21.259zm10.8 0h-.841c-1.053 0-1.853-.279-2.4-.836-.534-.558-.801-1.361-.801-2.41V21.09c0-1.05.267-1.852.801-2.41.547-.558 1.347-.837 2.4-.837h.841c.424 0 .827.093 1.21.28.383.172.65.438.801.796h.082v-4.5c0-.28.143-.419.43-.419h1.744c.287 0 .431.14.431.418v13.164c0 .279-.144.418-.431.418h-1.744c-.287 0-.43-.14-.43-.418v-.657h-.082c-.151.358-.418.63-.801.816a2.91 2.91 0 01-1.21.259zm2.093-3.704v-2.748c0-1.01-.472-1.514-1.416-1.514h-.923c-.438 0-.746.093-.923.279-.178.172-.267.471-.267.896v3.425c0 .425.089.73.267.916.177.173.485.26.923.26h.923c.944 0 1.416-.505 1.416-1.514zm4.972-8.166v-1.732c0-.265.137-.398.41-.398h1.785c.274 0 .41.126.41.378v1.753c0 .265-.136.398-.41.398h-1.785c-.273 0-.41-.133-.41-.398zm0 11.452v-9.32c0-.28.137-.419.41-.419h1.765c.287 0 .43.14.43.419v9.32c0 .172-.034.285-.102.338-.055.053-.157.08-.308.08h-1.764c-.287 0-.431-.14-.431-.418zm9.972.418h-1.826c-1.08 0-1.915-.279-2.503-.836-.588-.558-.882-1.361-.882-2.41V21.09c0-1.05.294-1.852.882-2.41.588-.558 1.423-.837 2.503-.837h1.826c1.067 0 1.894.286 2.482.857.602.558.903 1.354.903 2.39v3.664c0 1.035-.301 1.839-.903 2.41-.588.557-1.415.836-2.482.836zm-1.436-2.17h1.046c.438 0 .746-.087.923-.26.192-.172.288-.47.288-.896V21.17c0-.425-.096-.723-.288-.896-.177-.172-.485-.259-.923-.259h-1.046c-.438 0-.746.087-.923.26-.178.172-.267.47-.267.895v3.505c0 .425.089.724.267.896.177.173.485.26.923.26z" fill="#0A1931"/><path fill-rule="evenodd" clip-rule="evenodd" d="M9.6 28.9h-.4c1.8 2.9 3.7 6.4 3 7-.71.71-1.28.194-1.877-.345-.41-.372-.833-.755-1.323-.755-.66 0-1.11.485-1.512.92-.33.357-.628.68-.988.68-.427 0-.765-.36-1.119-.74-.391-.419-.803-.86-1.381-.86-.455 0-.91.377-1.358.747-.635.526-1.256 1.04-1.842.453-.6-.6 1.3-4.1 3.1-7h-.4C1.6 28.9 0 27.4 0 25.4V10.9C0 9 1.6 7.4 3.5 7.4h.3C2.1 4.5.2 1 .8.4c.64-.64 1.213-.128 1.817.411C3.05 1.2 3.499 1.6 4 1.6c.66 0 1.11-.485 1.512-.92C5.842.322 6.14 0 6.5 0c.368 0 .694.339 1.046.705.412.429.86.895 1.454.895.451 0 .886-.37 1.317-.738C10.937.333 11.551-.19 12.2.4c.6.6-1.3 4.1-3.1 7h.4c2 0 3.5 1.6 3.5 3.5v14.5c.1 2-1.5 3.5-3.4 3.5zM8 19.5v.8c0 .4-.4.8-.8.8H4.9c-1.7 0-3.1-1.4-3.1-3.1v-5.5c0-1.7 1.4-3.1 3.1-3.1h3.3c1.7 0 3.1 1.4 3.1 3.1v2.8c0 .2-.4.3-.5.1-.3-.4-.8-.8-1.4-.9-.1 0-.3-.1-.3-.3v-1.3c0-.9-.7-1.6-1.6-1.6H5.6c-.9 0-1.6.7-1.6 1.6v4.2c0 .9.7 1.6 1.6 1.6h1.5c.5 0 .9.4.9.8zM5 16v.8c0 .4.4.7.8.7h1.7c.9 0 1.6.7 1.6 1.6v4.2c0 .9-.7 1.6-1.6 1.6H5.6c-.9 0-1.6-.7-1.6-1.6V22c0-.2-.2-.3-.3-.3-.6-.1-1.1-.5-1.4-.9-.1-.2-.5-.1-.5.1v2.9c0 1.7 1.4 3.1 3.1 3.1h3.2c1.7 0 3.1-1.4 3.1-3.1v-5.5c0-1.7-1.4-3.1-3.1-3.1H5.8c-.4 0-.8.4-.8.8z" fill="#0A1931"/></svg>