<svg width="37" height="14" fill="none" xmlns="http://www.w3.org/2000/svg"><path fill-rule="evenodd" clip-rule="evenodd" d="M29.202 4.102v.4c2.9-1.8 6.4-3.7 7-3 .71.71.195 1.28-.345 1.877-.372.41-.755.834-.755 1.323 0 .66.485 1.11.921 1.513.356.329.68.628.68.987 0 .428-.362.765-.74 1.119-.42.392-.86.804-.86 1.381 0 .455.376.91.747 1.359.525.634 1.038 1.255.452 1.841-.6.6-4.1-1.3-7-3.1v.4c-.1 1.9-1.6 3.5-3.6 3.5h-14.5c-1.9 0-3.5-1.6-3.5-3.5v-.3c-2.9 1.7-6.4 3.6-7 3-.64-.64-.128-1.213.411-1.816.388-.433.79-.882.79-1.384 0-.66-.486-1.109-.922-1.512-.356-.33-.679-.628-.679-.988 0-.368.34-.694.705-1.046.43-.412.895-.86.895-1.454 0-.451-.37-.885-.738-1.317C.636 2.765.112 2.151.702 1.502c.6-.6 4.1 1.3 7 3.1v-.4c0-2 1.6-3.5 3.5-3.5h14.5c2-.1 3.5 1.5 3.5 3.4zm-9.4 1.6h.8c.4 0 .8.4.8.8v2.3c0 1.7-1.4 3.1-3.1 3.1h-5.5c-1.7 0-3.1-1.4-3.1-3.1v-3.3c0-1.7 1.4-3.1 3.1-3.1h2.8c.2 0 .3.4.1.5-.4.3-.8.8-.9 1.4 0 .1-.1.3-.3.3h-1.3c-.9 0-1.6.7-1.6 1.6v1.9c0 .9.7 1.6 1.6 1.6h4.2c.9 0 1.6-.7 1.6-1.6v-1.5c0-.5.4-.9.8-.9zm-3.5 3h.8c.4 0 .7-.4.7-.8v-1.7c0-.9.7-1.6 1.6-1.6h4.2c.9 0 1.6.7 1.6 1.6v1.9c0 .9-.7 1.6-1.6 1.6h-1.3c-.2 0-.3.2-.3.3-.1.6-.5 1.1-.9 1.4-.2.1-.1.5.1.5h2.9c1.7 0 3.1-1.4 3.1-3.1v-3.2c0-1.7-1.4-3.1-3.1-3.1h-5.5c-1.7 0-3.1 1.4-3.1 3.1v2.3c0 .4.4.8.8.8z" fill="#0A1931"/></svg>