<svg width="715" height="154" fill="none" xmlns="http://www.w3.org/2000/svg"><path fill-rule="evenodd" clip-rule="evenodd" d="M40.602 122.269H38.91c7.613 12.269 15.648 27.077 12.688 29.616-3.005 3.005-5.416.821-7.937-1.461-1.737-1.573-3.526-3.193-5.597-3.193-2.794 0-4.69 2.051-6.396 3.896-1.392 1.505-2.657 2.873-4.177 2.873-1.808 0-3.234-1.527-4.732-3.13-1.656-1.773-3.399-3.639-5.842-3.639-1.925 0-3.85 1.593-5.744 3.162-2.685 2.222-5.31 4.395-7.79 1.915-2.537-2.539 5.499-17.346 13.111-29.616h-1.691C6.767 122.269 0 115.923 0 107.462V46.115c0-8.038 6.767-14.807 14.803-14.807h1.268C8.881 19.038.846 4.23 3.383 1.692c2.709-2.71 5.13-.543 7.683 1.74 1.832 1.639 3.73 3.337 5.851 3.337 2.794 0 4.691-2.051 6.396-3.896C24.705 1.368 25.97 0 27.491 0c1.557 0 2.935 1.434 4.423 2.982 1.744 1.815 3.639 3.787 6.15 3.787 1.908 0 3.746-1.566 5.57-3.122 2.623-2.236 5.22-4.45 7.964-1.955 2.537 2.539-5.498 17.346-13.111 29.616h1.692c8.458 0 14.802 6.769 14.802 14.807v61.347c.423 8.461-6.344 14.807-14.38 14.807zM33.834 82.5v3.385c0 1.692-1.692 3.384-3.384 3.384h-9.727c-7.19 0-13.111-5.923-13.111-13.115v-23.27c0-7.192 5.921-13.115 13.11-13.115H34.68c7.19 0 13.11 5.923 13.11 13.116V64.73c0 .846-1.691 1.27-2.114.423-1.269-1.692-3.384-3.385-5.921-3.808-.423 0-1.269-.423-1.269-1.269v-5.5c0-3.808-2.96-6.77-6.767-6.77h-8.036c-3.806 0-6.767 2.962-6.767 6.77v17.77c0 3.807 2.961 6.769 6.767 6.769h6.344c2.115 0 3.807 1.692 3.807 3.384zM21.147 67.692v3.385c0 1.692 1.692 2.962 3.383 2.962h7.19c3.806 0 6.767 2.961 6.767 6.769v17.769c0 3.808-2.96 6.769-6.767 6.769h-8.036c-3.806 0-6.767-2.961-6.767-6.769v-5.5c0-.846-.845-1.27-1.268-1.27-2.538-.422-4.653-2.115-5.921-3.807-.423-.846-2.115-.423-2.115.423v12.269c0 7.193 5.921 13.116 13.11 13.116h13.535c7.19 0 13.11-5.923 13.11-13.116V77.423c0-7.192-5.92-13.115-13.11-13.115H24.53c-1.692 0-3.383 1.692-3.383 3.384z" fill="#FFD600"/><path d="M80.087 109.003v-1.707c0-1.195.608-1.792 1.824-1.792h7.382c1.216 0 1.824.597 1.824 1.792v.683c0 2.162.434 3.641 1.302 4.438.869.796 2.461 1.195 4.777 1.195h4.082c2.258 0 3.821-.427 4.69-1.281.926-.853 1.39-2.446 1.39-4.779v-1.024c0-1.65-.695-2.902-2.085-3.756-1.332-.91-3.011-1.451-5.037-1.621-2.027-.171-4.227-.484-6.6-.939a51.273 51.273 0 01-6.514-1.878c-2.027-.796-3.735-2.304-5.124-4.523C80.666 91.535 80 88.633 80 85.105v-2.987c0-4.438 1.274-7.88 3.821-10.327 2.548-2.447 6.08-3.67 10.596-3.67h8.685c4.574 0 8.135 1.223 10.682 3.67 2.548 2.447 3.822 5.889 3.822 10.327v1.622c0 1.195-.608 1.792-1.824 1.792H108.4c-1.216 0-1.824-.597-1.824-1.792v-.512c0-2.22-.434-3.727-1.303-4.524-.868-.796-2.461-1.195-4.777-1.195h-3.387c-2.374 0-3.995.455-4.863 1.366-.81.853-1.216 2.56-1.216 5.12v1.622c0 2.675 2.374 4.21 7.121 4.61 4.922.397 9.293 1.365 13.115 2.901 2.026.853 3.705 2.39 5.037 4.609 1.39 2.162 2.084 4.95 2.084 8.364v2.902c0 4.438-1.273 7.88-3.821 10.327S108.487 123 103.97 123h-9.466c-4.516 0-8.048-1.223-10.596-3.67-2.547-2.447-3.821-5.889-3.821-10.327zM145.142 123h-9.9c-1.1 0-1.795-.597-2.085-1.792l-8.685-39.943c-.231-1.195.203-1.793 1.303-1.793h8.338c1.273 0 1.968.598 2.084 1.793l3.908 29.189h.695l6.166-29.19c.174-1.194.84-1.792 1.998-1.792h7.643c1.215 0 1.939.598 2.171 1.793l5.992 29.189h.695l3.995-29.19c.174-1.194.869-1.792 2.085-1.792h8.337c1.158 0 1.592.598 1.303 1.793l-8.685 39.943c-.232 1.195-.926 1.792-2.084 1.792h-9.901c-1.158 0-1.853-.597-2.085-1.792l-5.297-28.848h-.695l-5.211 28.848c-.174 1.195-.869 1.792-2.085 1.792zm75.411 0h-19.194c-4.574 0-8.106-1.195-10.595-3.585-2.49-2.389-3.735-5.832-3.735-10.327V93.384c0-4.495 1.245-7.937 3.735-10.327 2.489-2.39 6.021-3.585 10.595-3.585h6.861c4.574 0 8.106 1.195 10.596 3.585 2.49 2.39 3.734 5.832 3.734 10.327v10.839c0 1.195-.608 1.793-1.823 1.793h-21.8c-.694 0-1.042.313-1.042.938v1.878c0 1.764.377 3.044 1.129 3.841.811.74 2.142 1.109 3.995 1.109h17.544c1.216 0 1.824.626 1.824 1.878v5.633c0 .626-.145 1.081-.435 1.366-.231.227-.694.341-1.389.341zm-21.626-24.239h11.812c.637 0 .955-.313.955-.939v-4.097c0-1.82-.376-3.1-1.129-3.84-.753-.74-2.055-1.11-3.908-1.11h-3.648c-1.853 0-3.155.37-3.908 1.11-.753.74-1.129 2.02-1.129 3.84v4.097c0 .626.318.939.955.939zM263.469 123h-19.194c-4.574 0-8.106-1.195-10.596-3.585-2.489-2.389-3.734-5.832-3.734-10.327V93.384c0-4.495 1.245-7.937 3.734-10.327 2.49-2.39 6.022-3.585 10.596-3.585h6.861c4.574 0 8.106 1.195 10.596 3.585 2.489 2.39 3.734 5.832 3.734 10.327v10.839c0 1.195-.608 1.793-1.824 1.793h-21.799c-.695 0-1.042.313-1.042.938v1.878c0 1.764.376 3.044 1.129 3.841.811.74 2.142 1.109 3.995 1.109h17.544c1.216 0 1.824.626 1.824 1.878v5.633c0 .626-.145 1.081-.435 1.366-.231.227-.695.341-1.389.341zm-21.626-24.239h11.812c.637 0 .955-.313.955-.939v-4.097c0-1.82-.376-3.1-1.129-3.84-.753-.74-2.055-1.11-3.908-1.11h-3.648c-1.853 0-3.155.37-3.908 1.11-.753.74-1.129 2.02-1.129 3.84v4.097c0 .626.318.939.955.939zm32.841-9.901h-3.474c-.694 0-1.186-.113-1.476-.34-.232-.228-.347-.684-.347-1.366v-5.89c0-1.194.608-1.792 1.823-1.792h3.474c.637 0 .956-.313.956-.939v-8.108c0-1.195.637-1.792 1.91-1.792h7.296c1.216 0 1.824.597 1.824 1.792v8.108c0 .626.347.94 1.042.94h6.774c1.216 0 1.824.597 1.824 1.792v5.889c0 .626-.145 1.08-.434 1.365-.232.228-.695.342-1.39.342h-6.774c-.695 0-1.042.313-1.042.938v18.862c0 1.764.405 3.045 1.216 3.841.81.74 2.142 1.11 3.995 1.11h3.474c1.216 0 1.823.597 1.823 1.792v5.889c0 .626-.144 1.081-.434 1.366-.231.227-.695.341-1.389.341h-5.298c-4.574 0-8.135-1.195-10.683-3.585-2.489-2.389-3.734-5.803-3.734-10.241V89.799c0-.626-.319-.938-.956-.938zM354.696 123h-28.574c-1.216 0-1.823-.597-1.823-1.792V69.913c0-1.195.607-1.792 1.823-1.792h7.383c1.215 0 1.823.597 1.823 1.792v42.674c0 .626.348.939 1.043.939h18.325c1.158 0 1.737.626 1.737 1.878v5.804c0 1.195-.579 1.792-1.737 1.792zm8.183-50.868v-7.425c0-1.138.579-1.707 1.737-1.707h7.556c1.158 0 1.737.54 1.737 1.622v7.51c0 1.138-.579 1.707-1.737 1.707h-7.556c-1.158 0-1.737-.569-1.737-1.707zm0 49.076V81.265c0-1.195.579-1.793 1.737-1.793h7.469c1.216 0 1.824.598 1.824 1.793v39.943c0 .739-.145 1.223-.435 1.451-.231.227-.666.341-1.302.341h-7.47c-1.215 0-1.823-.597-1.823-1.792zM393.108 123h-7.382c-1.216 0-1.824-.597-1.824-1.792V81.265c0-1.195.608-1.793 1.824-1.793h7.382c1.216 0 1.824.598 1.824 1.793v2.816h.348c1.273-3.073 4.11-4.609 8.511-4.609h2.779c9.09 0 13.635 4.638 13.635 13.912v27.824c0 1.195-.637 1.792-1.91 1.792h-7.296c-1.216 0-1.823-.597-1.823-1.792V93.896c0-1.82-.406-3.1-1.216-3.84-.753-.797-2.056-1.195-3.909-1.195h-3.126c-3.995 0-5.993 2.162-5.993 6.486v25.861c0 1.195-.608 1.792-1.824 1.792zm61.615-43.528h8.424c.695 0 1.158.2 1.39.598.231.398.144.91-.261 1.536l-11.551 18.691v.342l12.072 20.227c.348.569.376 1.081.087 1.537-.29.398-.811.597-1.563.597h-7.469c-.985 0-1.708-.114-2.172-.341-.405-.228-.839-.712-1.302-1.451l-11.03-19.033c-.521-.91-.521-1.849 0-2.816l10.422-18.18c.637-1.138 1.621-1.707 2.953-1.707zM438.569 123h-7.383c-1.216 0-1.823-.597-1.823-1.792V64.792c0-1.195.607-1.792 1.823-1.792h7.383c1.215 0 1.823.597 1.823 1.792v56.416c0 1.195-.608 1.792-1.823 1.792zm50.321-13.997v-1.707c0-1.195.608-1.792 1.824-1.792h7.382c1.216 0 1.824.597 1.824 1.792v.683c0 2.162.434 3.641 1.302 4.438.869.796 2.461 1.195 4.777 1.195h4.082c2.258 0 3.821-.427 4.69-1.281.926-.853 1.389-2.446 1.389-4.779v-1.024c0-1.65-.694-2.902-2.084-3.756-1.332-.91-3.011-1.451-5.037-1.621-2.027-.171-4.227-.484-6.601-.939a51.307 51.307 0 01-6.514-1.878c-2.026-.796-3.734-2.304-5.124-4.523-1.331-2.276-1.997-5.178-1.997-8.706v-2.987c0-4.438 1.274-7.88 3.821-10.327 2.548-2.447 6.08-3.67 10.596-3.67h8.685c4.574 0 8.135 1.223 10.682 3.67 2.548 2.447 3.822 5.889 3.822 10.327v1.622c0 1.195-.608 1.792-1.824 1.792h-7.382c-1.216 0-1.824-.597-1.824-1.792v-.512c0-2.22-.435-3.727-1.303-4.524-.869-.796-2.461-1.195-4.777-1.195h-3.387c-2.374 0-3.995.455-4.863 1.366-.811.853-1.216 2.56-1.216 5.12v1.622c0 2.675 2.374 4.21 7.121 4.61 4.922.397 9.293 1.365 13.115 2.901 2.026.853 3.705 2.39 5.037 4.609 1.389 2.162 2.084 4.95 2.084 8.364v2.902c0 4.438-1.274 7.88-3.821 10.327-2.548 2.447-6.08 3.67-10.596 3.67h-9.466c-4.517 0-8.048-1.223-10.596-3.67s-3.821-5.889-3.821-10.327zm48.293-20.143h-3.474c-.694 0-1.187-.113-1.476-.34-.232-.228-.347-.684-.347-1.366v-5.89c0-1.194.607-1.792 1.823-1.792h3.474c.637 0 .956-.313.956-.939v-8.108c0-1.195.637-1.792 1.91-1.792h7.296c1.216 0 1.824.597 1.824 1.792v8.108c0 .626.347.94 1.042.94h6.774c1.216 0 1.824.597 1.824 1.792v5.889c0 .626-.145 1.08-.434 1.365-.232.228-.695.342-1.39.342h-6.774c-.695 0-1.042.313-1.042.938v18.862c0 1.764.405 3.045 1.215 3.841.811.74 2.143 1.11 3.996 1.11h3.474c1.215 0 1.823.597 1.823 1.792v5.889c0 .626-.144 1.081-.434 1.366-.231.227-.695.341-1.389.341h-5.298c-4.574 0-8.135-1.195-10.683-3.585-2.489-2.389-3.734-5.803-3.734-10.241V89.799c0-.626-.319-.938-.956-.938zM582.826 123h-2.866c-4.458 0-7.845-1.195-10.161-3.585-2.258-2.389-3.387-5.832-3.387-10.327V81.265c0-1.195.608-1.793 1.823-1.793h7.383c1.215 0 1.823.598 1.823 1.793v27.311c0 1.821.377 3.13 1.129 3.926.811.74 2.114 1.11 3.909 1.11h3.213c3.995 0 5.993-2.162 5.993-6.487v-25.86c0-1.195.608-1.793 1.824-1.793h7.295c1.274 0 1.911.598 1.911 1.793v39.943c0 1.195-.637 1.792-1.911 1.792h-7.295c-1.216 0-1.824-.597-1.824-1.792v-2.817h-.348c-.637 1.536-1.766 2.703-3.387 3.499a12.197 12.197 0 01-5.124 1.11zm45.721 0h-3.561c-4.458 0-7.845-1.195-10.161-3.585-2.258-2.389-3.387-5.832-3.387-10.327V93.384c0-4.495 1.129-7.937 3.387-10.327 2.316-2.39 5.703-3.585 10.161-3.585h3.561c1.795 0 3.503.399 5.124 1.195 1.621.74 2.75 1.878 3.387 3.414h.348V64.792c0-1.195.607-1.792 1.823-1.792h7.383c1.215 0 1.823.597 1.823 1.792v56.416c0 1.195-.608 1.792-1.823 1.792h-7.383c-1.216 0-1.823-.597-1.823-1.792v-2.817h-.348c-.637 1.536-1.766 2.703-3.387 3.499a12.197 12.197 0 01-5.124 1.11zm8.859-15.875V95.347c0-4.324-1.998-6.486-5.993-6.486h-3.908c-1.853 0-3.156.398-3.909 1.194-.752.74-1.129 2.02-1.129 3.841v14.68c0 1.821.377 3.13 1.129 3.926.753.74 2.056 1.11 3.909 1.11h3.908c3.995 0 5.993-2.162 5.993-6.487zm21.049-34.993v-7.425c0-1.138.579-1.707 1.737-1.707h7.556c1.158 0 1.737.54 1.737 1.622v7.51c0 1.138-.579 1.707-1.737 1.707h-7.556c-1.158 0-1.737-.569-1.737-1.707zm0 49.076V81.265c0-1.195.579-1.793 1.737-1.793h7.469c1.216 0 1.824.598 1.824 1.793v39.943c0 .739-.145 1.223-.434 1.451-.232.227-.666.341-1.303.341h-7.469c-1.216 0-1.824-.597-1.824-1.792zM700.67 123h-7.73c-4.574 0-8.106-1.195-10.595-3.585-2.49-2.389-3.735-5.832-3.735-10.327V93.384c0-4.495 1.245-7.937 3.735-10.327 2.489-2.39 6.021-3.585 10.595-3.585h7.73c4.516 0 8.019 1.224 10.509 3.67 2.547 2.39 3.821 5.804 3.821 10.242v15.704c0 4.438-1.274 7.881-3.821 10.327-2.49 2.39-5.993 3.585-10.509 3.585zm-6.08-9.303h4.43c1.852 0 3.155-.37 3.908-1.11.811-.739 1.216-2.019 1.216-3.84V93.725c0-1.82-.405-3.1-1.216-3.84-.753-.74-2.056-1.11-3.908-1.11h-4.43c-1.852 0-3.155.37-3.908 1.11-.752.74-1.129 2.02-1.129 3.84v15.022c0 1.821.377 3.101 1.129 3.84.753.74 2.056 1.11 3.908 1.11z" fill="#fff"/></svg>