<svg width="14" height="37" fill="none" xmlns="http://www.w3.org/2000/svg"><path d="M9.209 28.65h-.45l.237.382c.899 1.447 1.818 3.037 2.424 4.336.304.651.523 1.218.625 1.65.051.217.07.387.06.51-.009.124-.042.168-.059.182l-.007.006-.007.007c-.155.156-.287.228-.396.257a.534.534 0 01-.325-.02c-.249-.087-.5-.31-.81-.59l-.008-.007a5.459 5.459 0 00-.656-.535c-.24-.156-.516-.278-.828-.278-.77 0-1.287.558-1.67.974l-.026.027a4.142 4.142 0 01-.452.446c-.14.108-.251.153-.352.153-.139 0-.278-.057-.436-.177a4.24 4.24 0 01-.5-.484l-.008-.008c-.19-.204-.405-.434-.649-.61-.252-.183-.55-.321-.907-.321-.295 0-.57.121-.814.272-.24.15-.478.346-.696.527l-.008.006c-.327.27-.608.5-.87.603a.597.597 0 01-.324.046.582.582 0 01-.311-.18c-.008-.008-.038-.05-.04-.181a2.024 2.024 0 01.083-.518c.116-.435.345-1.003.656-1.655.619-1.3 1.538-2.891 2.436-4.338l.237-.382h-.842C1.739 28.653.259 27.253.259 25.4V10.9c0-1.762 1.488-3.25 3.25-3.25h.736l-.22-.376c-.85-1.45-1.745-3.041-2.352-4.342-.304-.652-.531-1.22-.646-1.656A2.04 2.04 0 01.946.757C.948.626.978.584.986.577c.135-.135.25-.194.346-.215a.525.525 0 01.309.034c.247.096.504.321.818.602l.007.006c.212.19.444.397.69.557.249.161.534.289.853.289.77 0 1.286-.558 1.67-.974L5.705.85c.168-.182.31-.335.452-.446.14-.108.25-.153.352-.153.105 0 .225.048.378.164.153.117.308.277.487.464l.008.008c.201.21.43.447.686.63.264.19.574.334.94.334.295 0 .564-.12.8-.27.235-.148.462-.342.673-.521l.007-.007c.32-.273.595-.503.86-.608a.637.637 0 01.34-.048.676.676 0 01.346.183c.01.012.036.057.038.178.001.127-.025.3-.083.518-.116.435-.346 1.003-.656 1.655-.619 1.3-1.538 2.891-2.437 4.338l-.237.382h.851a3.228 3.228 0 013.25 3.25v14.5h0v.013c.092 1.845-1.38 3.237-3.15 3.237h-.4zm-.95-8.35v-.8c0-.556-.531-1.05-1.15-1.05h-1.5a1.33 1.33 0 01-1.35-1.35v-4.2c0-.762.588-1.35 1.35-1.35h1.9c.762 0 1.35.588 1.35 1.35v1.3c0 .193.1.335.206.42a.588.588 0 00.318.13c.506.089.943.43 1.215.786.132.23.4.242.553.208a.586.586 0 00.259-.128.42.42 0 00.149-.316v-2.8a3.366 3.366 0 00-3.35-3.35h-3.3a3.366 3.366 0 00-3.35 3.35V18a3.366 3.366 0 003.35 3.35h2.3c.281 0 .542-.138.727-.323.185-.185.323-.446.323-.727zm-3.5-4.3v.8c0 .288.145.53.34.692.194.162.45.258.71.258h1.7c.762 0 1.35.588 1.35 1.35v4.2a1.33 1.33 0 01-1.35 1.35h-1.9a1.33 1.33 0 01-1.35-1.35V22c0-.193-.1-.334-.206-.42a.588.588 0 00-.318-.13c-.506-.089-.943-.43-1.215-.786-.132-.23-.401-.242-.553-.208a.588.588 0 00-.26.128.42.42 0 00-.148.316v2.9a3.366 3.366 0 003.35 3.35h3.2a3.366 3.366 0 003.35-3.35v-5.5a3.366 3.366 0 00-3.35-3.35h-2.3c-.281 0-.542.138-.727.323A1.052 1.052 0 004.76 16z" stroke="#fff" stroke-width=".5"/></svg>