<svg width="14" height="37" fill="none" xmlns="http://www.w3.org/2000/svg"><path d="M9.209 28.775h-.225l.119.19c.899 1.45 1.82 3.045 2.43 4.35.305.654.53 1.23.634 1.675.052.223.073.406.063.547-.01.142-.05.223-.103.268h0l-.007.007c-.166.166-.316.253-.452.289a.66.66 0 01-.399-.023c-.277-.097-.549-.34-.853-.616l-.004-.004a5.368 5.368 0 00-.644-.525c-.229-.149-.48-.258-.76-.258-.715 0-1.197.521-1.589.946l-.014.015c-.167.18-.316.341-.468.46-.15.116-.288.179-.428.179-.176 0-.341-.074-.512-.203a4.35 4.35 0 01-.516-.497l-.004-.005c-.193-.206-.4-.428-.634-.598-.238-.173-.51-.297-.834-.297-.262 0-.513.108-.748.253-.234.145-.465.337-.686.52l-.004.003c-.323.267-.62.511-.905.623a.722.722 0 01-.39.053.706.706 0 01-.379-.215L.81 36l.088-.088c-.041-.042-.074-.122-.076-.268a2.142 2.142 0 01.087-.55c.119-.448.352-1.024.664-1.678.622-1.306 1.544-2.902 2.443-4.35l.119-.191h-.622C1.674 28.777.134 27.326.134 25.4V10.9c0-1.831 1.544-3.375 3.375-3.375h.518l-.11-.188C3.067 5.887 2.17 4.29 1.56 2.985c-.306-.655-.536-1.23-.654-1.678A2.159 2.159 0 01.821.756C.823.61.856.53.897.488A.85.85 0 011.305.24a.65.65 0 01.381.04c.273.105.549.35.856.624l.004.004c.214.191.44.394.677.548.24.155.501.269.786.269.715 0 1.197-.521 1.59-.945l.014-.016a4.34 4.34 0 01.467-.46c.15-.116.289-.179.429-.179.145 0 .291.066.453.19.163.123.325.292.503.476l.004.005c.203.211.425.442.672.619.25.18.536.31.868.31.26 0 .505-.106.733-.25.226-.144.448-.333.661-.514l.004-.004c.315-.268.607-.515.896-.63a.761.761 0 01.405-.055.81.81 0 01.414.218c.04.042.073.123.075.266.002.142-.027.327-.087.55-.119.448-.353 1.024-.664 1.678-.622 1.306-1.544 2.902-2.443 4.35l-.119.191h.625a3.354 3.354 0 013.375 3.375v14.5h0v.006c.096 1.923-1.44 3.369-3.275 3.369h-.4zM8.134 20.3v-.8c0-.478-.466-.925-1.025-.925h-1.5A1.455 1.455 0 014.134 17.1v-4.2c0-.83.644-1.475 1.475-1.475h1.9c.83 0 1.475.644 1.475 1.475v1.3c0 .147.075.255.16.323a.46.46 0 00.253.102c.552.095 1.02.464 1.306.842.091.167.289.184.42.155a.463.463 0 00.205-.1.296.296 0 00.106-.222v-2.8a3.24 3.24 0 00-3.225-3.225h-3.3A3.24 3.24 0 001.684 12.5V18a3.24 3.24 0 003.225 3.225h2.3c.24 0 .47-.119.638-.287a.927.927 0 00.287-.638zM4.884 16v.8c0 .244.122.452.295.596a1 1 0 00.63.229h1.7c.83 0 1.475.644 1.475 1.475v4.2c0 .831-.644 1.475-1.475 1.475h-1.9A1.455 1.455 0 014.134 23.3V22a.408.408 0 00-.16-.323.46.46 0 00-.253-.102c-.552-.095-1.02-.464-1.306-.842-.091-.166-.289-.184-.42-.155a.463.463 0 00-.205.1.296.296 0 00-.106.222v2.9a3.24 3.24 0 003.225 3.225h3.2a3.24 3.24 0 003.225-3.225v-5.5a3.24 3.24 0 00-3.225-3.225h-2.3c-.24 0-.47.12-.638.287a.927.927 0 00-.287.638z" stroke="#fff" stroke-width=".25"/></svg>