<svg width="715" height="154" viewBox="0 0 715 154" fill="none" xmlns="http://www.w3.org/2000/svg">
<path fill-rule="evenodd" clip-rule="evenodd" d="M40.6015 122.269H38.9098C46.5225 134.538 54.5583 149.346 51.5977 151.885C48.5934 154.89 46.1819 152.706 43.6613 150.424C41.9239 148.851 40.1347 147.231 38.0639 147.231C35.27 147.231 33.3732 149.282 31.6681 151.127C30.2759 152.632 29.0114 154 27.4906 154C25.6828 154 24.2566 152.473 22.7589 150.87C21.1031 149.097 19.36 147.231 16.9173 147.231C14.9924 147.231 13.0676 148.824 11.1727 150.393C8.48772 152.615 5.86291 154.788 3.38346 152.308C0.845864 149.769 8.88158 134.962 16.4944 122.692H14.8026C6.76692 122.269 0 115.923 0 107.462V46.1154C0 38.0769 6.76692 31.3077 14.8026 31.3077H16.0714C8.88158 19.0385 0.845864 4.23077 3.38346 1.69231C6.092 -1.01716 8.51383 1.14913 11.0663 3.43225C12.8979 5.07066 14.7969 6.76923 16.9173 6.76923C19.7112 6.76923 21.608 4.71774 23.3131 2.87349C24.7053 1.36766 25.9698 0 27.4906 0C29.0479 0 30.4261 1.4341 31.9137 2.98212C33.658 4.79735 35.553 6.76923 38.0639 6.76923C39.9724 6.76923 41.8098 5.20277 43.6344 3.6472C46.2574 1.41093 48.854 -0.802828 51.5977 1.69231C54.1353 4.23077 46.0996 19.0385 38.4868 31.3077H40.1786C48.6372 31.3077 54.9812 38.0769 54.9812 46.1154V107.462C55.4041 115.923 48.6372 122.269 40.6015 122.269ZM33.8348 82.5001V85.8847C33.8348 87.577 32.1431 89.2693 30.4513 89.2693H20.7239C13.534 89.2693 7.61299 83.3463 7.61299 76.1539V52.8847C7.61299 45.6924 13.534 39.7693 20.7239 39.7693H34.6806C41.8705 39.7693 47.7915 45.6924 47.7915 52.8847V64.7309C47.7915 65.577 46.0998 66.0001 45.6769 65.1539C44.4081 63.4616 42.2934 61.7693 39.7558 61.3463C39.3329 61.3463 38.487 60.9232 38.487 60.077V54.577C38.487 50.7693 35.5265 47.8078 31.7201 47.8078H23.6844C19.878 47.8078 16.9175 50.7693 16.9175 54.577V72.3463C16.9175 76.1539 19.878 79.1155 23.6844 79.1155H30.0284C32.1431 79.1155 33.8348 80.8078 33.8348 82.5001ZM21.1468 67.6924V71.077C21.1468 72.7693 22.8385 74.0385 24.5303 74.0385H31.7201C35.5265 74.0385 38.487 77.0001 38.487 80.8077V98.577C38.487 102.385 35.5265 105.346 31.7201 105.346H23.6844C19.878 105.346 16.9175 102.385 16.9175 98.577V93.077C16.9175 92.2308 16.0716 91.8077 15.6487 91.8077C13.1111 91.3847 10.9964 89.6924 9.72765 88C9.30472 87.1539 7.61299 87.577 7.61299 88.4231V100.692C7.61299 107.885 13.534 113.808 20.7239 113.808H34.2577C41.4476 113.808 47.3686 107.885 47.3686 100.692V77.4231C47.3686 70.2308 41.4476 64.3077 34.2577 64.3077H24.5303C22.8385 64.3077 21.1468 66.0001 21.1468 67.6924Z" fill="#FFD600"/>
<path d="M80.0868 109.003V107.296C80.0868 106.101 80.6948 105.504 81.9107 105.504H89.2929C90.5088 105.504 91.1167 106.101 91.1167 107.296V107.979C91.1167 110.141 91.551 111.62 92.4195 112.417C93.288 113.213 94.8802 113.612 97.1962 113.612H101.278C103.536 113.612 105.099 113.185 105.968 112.331C106.894 111.478 107.358 109.885 107.358 107.552V106.528C107.358 104.878 106.663 103.626 105.273 102.772C103.941 101.862 102.262 101.321 100.236 101.151C98.2094 100.98 96.0092 100.667 93.6354 100.212C91.3194 99.6999 89.1481 99.074 87.1217 98.3343C85.0952 97.5377 83.3871 96.0299 81.9975 93.8108C80.6658 91.5348 80 88.633 80 85.1053V82.1181C80 77.6799 81.2738 74.2376 83.8214 71.7909C86.369 69.3442 89.9008 68.1209 94.417 68.1209H103.102C107.676 68.1209 111.237 69.3442 113.784 71.7909C116.332 74.2376 117.606 77.6799 117.606 82.1181V83.7397C117.606 84.9346 116.998 85.532 115.782 85.532H108.4C107.184 85.532 106.576 84.9346 106.576 83.7397V83.2276C106.576 81.0085 106.142 79.5007 105.273 78.7041C104.405 77.9075 102.812 77.5092 100.496 77.5092H97.1093C94.7354 77.5092 93.1143 77.9644 92.2458 78.8748C91.4352 79.7283 91.0299 81.4353 91.0299 83.9957V85.6174C91.0299 88.2916 93.4038 89.8279 98.1515 90.2262C103.073 90.6245 107.444 91.5917 111.266 93.128C113.292 93.9815 114.971 95.5178 116.303 97.7368C117.693 99.899 118.387 102.687 118.387 106.101V109.003C118.387 113.441 117.114 116.883 114.566 119.33C112.018 121.777 108.487 123 103.97 123H94.5038C89.9877 123 86.4558 121.777 83.9082 119.33C81.3606 116.883 80.0868 113.441 80.0868 109.003Z" fill="white"/>
<path d="M145.142 123H135.242C134.142 123 133.447 122.403 133.157 121.208L124.472 81.2646C124.241 80.0697 124.675 79.4723 125.775 79.4723H134.113C135.386 79.4723 136.081 80.0697 136.197 81.2646L140.105 110.454H140.8L146.966 81.2646C147.14 80.0697 147.806 79.4723 148.964 79.4723H156.607C157.822 79.4723 158.546 80.0697 158.778 81.2646L164.77 110.454H165.465L169.46 81.2646C169.634 80.0697 170.329 79.4723 171.545 79.4723H179.882C181.04 79.4723 181.474 80.0697 181.185 81.2646L172.5 121.208C172.268 122.403 171.574 123 170.416 123H160.515C159.357 123 158.662 122.403 158.43 121.208L153.133 92.3599H152.438L147.227 121.208C147.053 122.403 146.358 123 145.142 123Z" fill="white"/>
<path d="M220.553 123H201.359C196.785 123 193.253 121.805 190.764 119.415C188.274 117.026 187.029 113.583 187.029 109.088V93.3841C187.029 88.889 188.274 85.4467 190.764 83.0569C193.253 80.6671 196.785 79.4723 201.359 79.4723H208.22C212.794 79.4723 216.326 80.6671 218.816 83.0569C221.306 85.4467 222.55 88.889 222.55 93.3841V104.223C222.55 105.418 221.942 106.016 220.727 106.016H198.927C198.233 106.016 197.885 106.329 197.885 106.954V108.832C197.885 110.596 198.262 111.876 199.014 112.673C199.825 113.413 201.156 113.782 203.009 113.782H220.553C221.769 113.782 222.377 114.408 222.377 115.66V121.293C222.377 121.919 222.232 122.374 221.942 122.659C221.711 122.886 221.248 123 220.553 123ZM198.927 98.761H210.739C211.376 98.761 211.694 98.4481 211.694 97.8222V93.7255C211.694 91.9047 211.318 90.6245 210.565 89.8848C209.812 89.1451 208.51 88.7752 206.657 88.7752H203.009C201.156 88.7752 199.854 89.1451 199.101 89.8848C198.348 90.6245 197.972 91.9047 197.972 93.7255V97.8222C197.972 98.4481 198.29 98.761 198.927 98.761Z" fill="white"/>
<path d="M263.469 123H244.275C239.701 123 236.169 121.805 233.679 119.415C231.19 117.026 229.945 113.583 229.945 109.088V93.3841C229.945 88.889 231.19 85.4467 233.679 83.0569C236.169 80.6671 239.701 79.4723 244.275 79.4723H251.136C255.71 79.4723 259.242 80.6671 261.732 83.0569C264.221 85.4467 265.466 88.889 265.466 93.3841V104.223C265.466 105.418 264.858 106.016 263.642 106.016H241.843C241.148 106.016 240.801 106.329 240.801 106.954V108.832C240.801 110.596 241.177 111.876 241.93 112.673C242.741 113.413 244.072 113.782 245.925 113.782H263.469C264.685 113.782 265.293 114.408 265.293 115.66V121.293C265.293 121.919 265.148 122.374 264.858 122.659C264.627 122.886 264.163 123 263.469 123ZM241.843 98.761H253.655C254.292 98.761 254.61 98.4481 254.61 97.8222V93.7255C254.61 91.9047 254.234 90.6245 253.481 89.8848C252.728 89.1451 251.426 88.7752 249.573 88.7752H245.925C244.072 88.7752 242.77 89.1451 242.017 89.8848C241.264 90.6245 240.888 91.9047 240.888 93.7255V97.8222C240.888 98.4481 241.206 98.761 241.843 98.761Z" fill="white"/>
<path d="M274.684 88.8606H271.21C270.516 88.8606 270.024 88.7468 269.734 88.5192C269.502 88.2916 269.387 87.8364 269.387 87.1536V81.2646C269.387 80.0697 269.995 79.4723 271.21 79.4723H274.684C275.321 79.4723 275.64 79.1593 275.64 78.5334V70.4253C275.64 69.2304 276.277 68.633 277.55 68.633H284.846C286.062 68.633 286.67 69.2304 286.67 70.4253V78.5334C286.67 79.1593 287.017 79.4723 287.712 79.4723H294.486C295.702 79.4723 296.31 80.0697 296.31 81.2646V87.1536C296.31 87.7795 296.165 88.2347 295.876 88.5192C295.644 88.7468 295.181 88.8606 294.486 88.8606H287.712C287.017 88.8606 286.67 89.1735 286.67 89.7994V108.661C286.67 110.425 287.075 111.706 287.886 112.502C288.696 113.242 290.028 113.612 291.881 113.612H295.355C296.571 113.612 297.178 114.209 297.178 115.404V121.293C297.178 121.919 297.034 122.374 296.744 122.659C296.513 122.886 296.049 123 295.355 123H290.057C285.483 123 281.922 121.805 279.374 119.415C276.885 117.026 275.64 113.612 275.64 109.174V89.7994C275.64 89.1735 275.321 88.8606 274.684 88.8606Z" fill="white"/>
<path d="M354.696 123H326.122C324.906 123 324.299 122.403 324.299 121.208V69.9132C324.299 68.7183 324.906 68.1209 326.122 68.1209H333.505C334.72 68.1209 335.328 68.7183 335.328 69.9132V112.587C335.328 113.213 335.676 113.526 336.371 113.526H354.696C355.854 113.526 356.433 114.152 356.433 115.404V121.208C356.433 122.403 355.854 123 354.696 123Z" fill="white"/>
<path d="M362.879 72.1323V64.707C362.879 63.569 363.458 63 364.616 63H372.172C373.33 63 373.909 63.5405 373.909 64.6216V72.1323C373.909 73.2703 373.33 73.8393 372.172 73.8393H364.616C363.458 73.8393 362.879 73.2703 362.879 72.1323ZM362.879 121.208V81.2646C362.879 80.0697 363.458 79.4723 364.616 79.4723H372.085C373.301 79.4723 373.909 80.0697 373.909 81.2646V121.208C373.909 121.947 373.764 122.431 373.474 122.659C373.243 122.886 372.808 123 372.172 123H364.702C363.487 123 362.879 122.403 362.879 121.208Z" fill="white"/>
<path d="M393.108 123H385.726C384.51 123 383.902 122.403 383.902 121.208V81.2646C383.902 80.0697 384.51 79.4723 385.726 79.4723H393.108C394.324 79.4723 394.932 80.0697 394.932 81.2646V84.0811H395.28C396.553 81.0085 399.39 79.4723 403.791 79.4723H406.57C415.66 79.4723 420.205 84.1095 420.205 93.3841V121.208C420.205 122.403 419.568 123 418.295 123H410.999C409.783 123 409.176 122.403 409.176 121.208V93.8962C409.176 92.0754 408.77 90.7952 407.96 90.0555C407.207 89.2589 405.904 88.8606 404.051 88.8606H400.925C396.93 88.8606 394.932 91.0228 394.932 95.3471V121.208C394.932 122.403 394.324 123 393.108 123Z" fill="white"/>
<path d="M454.723 79.4723H463.147C463.842 79.4723 464.305 79.6714 464.537 80.0697C464.768 80.468 464.681 80.9801 464.276 81.606L452.725 100.297V100.639L464.797 120.866C465.145 121.435 465.173 121.947 464.884 122.403C464.594 122.801 464.073 123 463.321 123H455.852C454.867 123 454.144 122.886 453.68 122.659C453.275 122.431 452.841 121.947 452.378 121.208L441.348 102.175C440.827 101.265 440.827 100.326 441.348 99.3585L451.77 81.1792C452.407 80.0412 453.391 79.4723 454.723 79.4723ZM438.569 123H431.186C429.97 123 429.363 122.403 429.363 121.208V64.7923C429.363 63.5974 429.97 63 431.186 63H438.569C439.784 63 440.392 63.5974 440.392 64.7923V121.208C440.392 122.403 439.784 123 438.569 123Z" fill="white"/>
<path d="M488.89 109.003V107.296C488.89 106.101 489.498 105.504 490.714 105.504H498.096C499.312 105.504 499.92 106.101 499.92 107.296V107.979C499.92 110.141 500.354 111.62 501.222 112.417C502.091 113.213 503.683 113.612 505.999 113.612H510.081C512.339 113.612 513.902 113.185 514.771 112.331C515.697 111.478 516.16 109.885 516.16 107.552V106.528C516.16 104.878 515.466 103.626 514.076 102.772C512.744 101.862 511.065 101.321 509.039 101.151C507.012 100.98 504.812 100.667 502.438 100.212C500.122 99.6999 497.951 99.074 495.924 98.3343C493.898 97.5377 492.19 96.0299 490.8 93.8108C489.469 91.5348 488.803 88.633 488.803 85.1053V82.1181C488.803 77.6799 490.077 74.2376 492.624 71.7909C495.172 69.3442 498.704 68.1209 503.22 68.1209H511.905C516.479 68.1209 520.04 69.3442 522.587 71.7909C525.135 74.2376 526.409 77.6799 526.409 82.1181V83.7397C526.409 84.9346 525.801 85.532 524.585 85.532H517.203C515.987 85.532 515.379 84.9346 515.379 83.7397V83.2276C515.379 81.0085 514.944 79.5007 514.076 78.7041C513.207 77.9075 511.615 77.5092 509.299 77.5092H505.912C503.538 77.5092 501.917 77.9644 501.049 78.8748C500.238 79.7283 499.833 81.4353 499.833 83.9957V85.6174C499.833 88.2916 502.207 89.8279 506.954 90.2262C511.876 90.6245 516.247 91.5917 520.069 93.128C522.095 93.9815 523.774 95.5178 525.106 97.7368C526.495 99.899 527.19 102.687 527.19 106.101V109.003C527.19 113.441 525.916 116.883 523.369 119.33C520.821 121.777 517.289 123 512.773 123H503.307C498.79 123 495.259 121.777 492.711 119.33C490.163 116.883 488.89 113.441 488.89 109.003Z" fill="white"/>
<path d="M537.183 88.8606H533.709C533.015 88.8606 532.522 88.7468 532.233 88.5192C532.001 88.2916 531.886 87.8364 531.886 87.1536V81.2646C531.886 80.0697 532.493 79.4723 533.709 79.4723H537.183C537.82 79.4723 538.139 79.1593 538.139 78.5334V70.4253C538.139 69.2304 538.776 68.633 540.049 68.633H547.345C548.561 68.633 549.169 69.2304 549.169 70.4253V78.5334C549.169 79.1593 549.516 79.4723 550.211 79.4723H556.985C558.201 79.4723 558.809 80.0697 558.809 81.2646V87.1536C558.809 87.7795 558.664 88.2347 558.375 88.5192C558.143 88.7468 557.68 88.8606 556.985 88.8606H550.211C549.516 88.8606 549.169 89.1735 549.169 89.7994V108.661C549.169 110.425 549.574 111.706 550.384 112.502C551.195 113.242 552.527 113.612 554.38 113.612H557.854C559.069 113.612 559.677 114.209 559.677 115.404V121.293C559.677 121.919 559.533 122.374 559.243 122.659C559.012 122.886 558.548 123 557.854 123H552.556C547.982 123 544.421 121.805 541.873 119.415C539.384 117.026 538.139 113.612 538.139 109.174V89.7994C538.139 89.1735 537.82 88.8606 537.183 88.8606Z" fill="white"/>
<path d="M582.826 123H579.96C575.502 123 572.115 121.805 569.799 119.415C567.541 117.026 566.412 113.583 566.412 109.088V81.2646C566.412 80.0697 567.02 79.4723 568.235 79.4723H575.618C576.833 79.4723 577.441 80.0697 577.441 81.2646V108.576C577.441 110.397 577.818 111.706 578.57 112.502C579.381 113.242 580.684 113.612 582.479 113.612H585.692C589.687 113.612 591.685 111.45 591.685 107.125V81.2646C591.685 80.0697 592.293 79.4723 593.509 79.4723H600.804C602.078 79.4723 602.715 80.0697 602.715 81.2646V121.208C602.715 122.403 602.078 123 600.804 123H593.509C592.293 123 591.685 122.403 591.685 121.208V118.391H591.337C590.7 119.927 589.571 121.094 587.95 121.89C586.329 122.63 584.621 123 582.826 123Z" fill="white"/>
<path d="M628.547 123H624.986C620.528 123 617.141 121.805 614.825 119.415C612.567 117.026 611.438 113.583 611.438 109.088V93.3841C611.438 88.889 612.567 85.4467 614.825 83.0569C617.141 80.6671 620.528 79.4723 624.986 79.4723H628.547C630.342 79.4723 632.05 79.8706 633.671 80.6671C635.292 81.4068 636.421 82.5448 637.058 84.0811H637.406V64.7923C637.406 63.5974 638.013 63 639.229 63H646.612C647.827 63 648.435 63.5974 648.435 64.7923V121.208C648.435 122.403 647.827 123 646.612 123H639.229C638.013 123 637.406 122.403 637.406 121.208V118.391H637.058C636.421 119.927 635.292 121.094 633.671 121.89C632.05 122.63 630.342 123 628.547 123ZM637.406 107.125V95.3471C637.406 91.0228 635.408 88.8606 631.413 88.8606H627.505C625.652 88.8606 624.349 89.2589 623.596 90.0555C622.844 90.7952 622.467 92.0754 622.467 93.8962V108.576C622.467 110.397 622.844 111.706 623.596 112.502C624.349 113.242 625.652 113.612 627.505 113.612H631.413C635.408 113.612 637.406 111.45 637.406 107.125Z" fill="white"/>
<path d="M658.455 72.1323V64.707C658.455 63.569 659.034 63 660.192 63H667.748C668.906 63 669.485 63.5405 669.485 64.6216V72.1323C669.485 73.2703 668.906 73.8393 667.748 73.8393H660.192C659.034 73.8393 658.455 73.2703 658.455 72.1323ZM658.455 121.208V81.2646C658.455 80.0697 659.034 79.4723 660.192 79.4723H667.661C668.877 79.4723 669.485 80.0697 669.485 81.2646V121.208C669.485 121.947 669.34 122.431 669.051 122.659C668.819 122.886 668.385 123 667.748 123H660.279C659.063 123 658.455 122.403 658.455 121.208Z" fill="white"/>
<path d="M700.67 123H692.94C688.366 123 684.834 121.805 682.345 119.415C679.855 117.026 678.61 113.583 678.61 109.088V93.3841C678.61 88.889 679.855 85.4467 682.345 83.0569C684.834 80.6671 688.366 79.4723 692.94 79.4723H700.67C705.186 79.4723 708.689 80.6956 711.179 83.1422C713.726 85.532 715 88.9459 715 93.3841V109.088C715 113.526 713.726 116.969 711.179 119.415C708.689 121.805 705.186 123 700.67 123ZM694.59 113.697H699.02C700.872 113.697 702.175 113.327 702.928 112.587C703.739 111.848 704.144 110.568 704.144 108.747V93.7255C704.144 91.9047 703.739 90.6245 702.928 89.8848C702.175 89.1451 700.872 88.7752 699.02 88.7752H694.59C692.738 88.7752 691.435 89.1451 690.682 89.8848C689.93 90.6245 689.553 91.9047 689.553 93.7255V108.747C689.553 110.568 689.93 111.848 690.682 112.587C691.435 113.327 692.738 113.697 694.59 113.697Z" fill="white"/>
</svg>
