<svg width="14" height="37" viewBox="0 0 14 37" fill="none" xmlns="http://www.w3.org/2000/svg">
<path d="M9.2089 28.65H8.75948L8.99649 29.0318C9.89478 30.4791 10.8136 32.0692 11.4199 33.3682C11.7238 34.0195 11.9433 34.5855 12.0452 35.0182C12.0964 35.2353 12.1144 35.4048 12.1054 35.5278C12.0964 35.6522 12.063 35.6958 12.0462 35.7102L12.0389 35.7164L12.0321 35.7232C11.8766 35.8788 11.7448 35.9511 11.6358 35.9799C11.5295 36.0081 11.4247 36.0004 11.3108 35.9603C11.0624 35.8728 10.8105 35.6504 10.5001 35.3694L10.4926 35.3626C10.2924 35.1814 10.0717 34.9816 9.83666 34.8285C9.59678 34.6722 9.32076 34.55 9.0089 34.55C8.23806 34.55 7.72237 35.1081 7.33832 35.5238L7.31311 35.5511C7.14473 35.7331 7.00211 35.8864 6.86053 35.9967C6.72091 36.1054 6.60985 36.15 6.5089 36.15C6.37004 36.15 6.23114 36.0925 6.07278 35.9728C5.91129 35.8507 5.75357 35.6829 5.57278 35.4894L5.56487 35.4809C5.37452 35.2772 5.15983 35.0474 4.9161 34.8706C4.66435 34.6879 4.36644 34.55 4.0089 34.55C3.71366 34.55 3.43866 34.6714 3.19539 34.8222C2.95414 34.9717 2.71738 35.1676 2.4985 35.3487L2.49123 35.3548C2.16353 35.6259 1.88279 35.8548 1.62021 35.9578C1.49567 36.0067 1.39067 36.0203 1.2974 36.0041C1.20626 35.9884 1.10248 35.94 0.985673 35.8232C0.978097 35.8156 0.947605 35.7744 0.945986 35.6428C0.94443 35.5163 0.970418 35.3438 1.02861 35.1253C1.14456 34.6897 1.3743 34.1216 1.68461 33.47C2.30376 32.1698 3.22317 30.5788 4.12131 29.1318L4.35831 28.75H3.9089H3.51559C1.739 28.6533 0.258896 27.2529 0.258896 25.4V10.9C0.258896 9.13807 1.74697 7.65 3.5089 7.65H3.8089H4.24524L4.02457 7.27357C3.17507 5.82442 2.28016 4.23296 1.67294 2.93178C1.36864 2.27971 1.1418 1.71143 1.02725 1.27552C0.969763 1.05678 0.944073 0.884174 0.945787 0.757484C0.947571 0.625657 0.978058 0.584391 0.985673 0.576777C1.12073 0.441717 1.23588 0.383403 1.33164 0.36238C1.42652 0.341554 1.52636 0.352035 1.6409 0.396298C1.88786 0.491735 2.14549 0.717455 2.45881 0.99762L2.4663 1.00432C2.67764 1.1933 2.91014 1.40121 3.1554 1.56051C3.40473 1.72246 3.69036 1.85 4.0089 1.85C4.77973 1.85 5.29542 1.29187 5.67947 0.87621C5.68794 0.867047 5.69634 0.857953 5.70468 0.848936C5.87306 0.666874 6.01569 0.513633 6.15726 0.403338C6.29688 0.294565 6.40795 0.25 6.5089 0.25C6.61401 0.25 6.73423 0.298221 6.88659 0.414166C7.03957 0.530587 7.19496 0.691379 7.37448 0.878121L7.38211 0.886059C7.58321 1.09527 7.81172 1.333 8.06835 1.51664C8.33179 1.70515 8.64247 1.85 9.0089 1.85C9.30258 1.85 9.57177 1.72999 9.80856 1.58018C10.0426 1.43213 10.2703 1.23804 10.4807 1.05868L10.4882 1.05234C10.8084 0.779438 11.0833 0.548885 11.3485 0.444206C11.4741 0.394648 11.5849 0.379134 11.6883 0.395858C11.789 0.412139 11.9039 0.462346 12.0342 0.579117C12.0442 0.591151 12.0703 0.635581 12.0718 0.757176C12.0734 0.883696 12.0474 1.05617 11.9892 1.27475C11.8732 1.71031 11.6435 2.27837 11.3332 2.93002C10.714 4.23022 9.79463 5.82116 8.89649 7.26816L8.65948 7.65H9.1089H9.5089C11.3662 7.65 12.7589 9.13338 12.7589 10.9V25.4H12.7586L12.7592 25.4125C12.8515 27.2578 11.3781 28.65 9.6089 28.65H9.2089ZM8.25894 20.3V19.5C8.25894 18.9435 7.7278 18.45 7.10894 18.45H5.60894C4.84702 18.45 4.25894 17.862 4.25894 17.1V12.9C4.25894 12.1381 4.84702 11.55 5.60894 11.55H7.50894C8.27087 11.55 8.85894 12.1381 8.85894 12.9V14.2C8.85894 14.393 8.95814 14.5345 9.06527 14.6202C9.15707 14.6937 9.27407 14.7423 9.38278 14.7492C9.88855 14.8387 10.3262 15.1794 10.5982 15.5358C10.7304 15.7663 10.9989 15.7778 11.1507 15.7441C11.2403 15.7242 11.3339 15.6829 11.41 15.6158C11.4875 15.5477 11.5589 15.4403 11.5589 15.3V12.5C11.5589 10.662 10.047 9.15002 8.20894 9.15002H4.90895C3.07087 9.15002 1.55894 10.662 1.55894 12.5V18C1.55894 19.8381 3.07087 21.35 4.90895 21.35H7.20894C7.49025 21.35 7.75064 21.2119 7.93572 21.0268C8.12081 20.8417 8.25894 20.5813 8.25894 20.3ZM4.75894 16V16.8C4.75894 17.0884 4.90379 17.3295 5.0989 17.4921C5.29271 17.6536 5.54902 17.75 5.80895 17.75H7.50894C8.27087 17.75 8.85894 18.3381 8.85894 19.1V23.3C8.85894 24.0619 8.27087 24.65 7.50894 24.65H5.60894C4.84702 24.65 4.25894 24.0619 4.25894 23.3V22C4.25894 21.8071 4.15975 21.6655 4.05262 21.5798C3.96082 21.5064 3.84383 21.4577 3.73512 21.4508C3.22935 21.3614 2.79171 21.0207 2.51968 20.6642C2.3875 20.4337 2.11896 20.4222 1.96721 20.456C1.87758 20.4759 1.78402 20.5172 1.70785 20.5842C1.63041 20.6524 1.55894 20.7598 1.55894 20.9V23.8C1.55894 25.6381 3.07087 27.15 4.90895 27.15H8.10894C9.94702 27.15 11.4589 25.6381 11.4589 23.8V18.3C11.4589 16.4619 9.94702 14.95 8.10894 14.95H5.80894C5.52764 14.95 5.26725 15.0881 5.08217 15.2732C4.89708 15.4583 4.75894 15.7187 4.75894 16Z" stroke="white" stroke-width="0.5"/>
</svg>
