<svg width="170" height="37" viewBox="0 0 170 37" fill="none" xmlns="http://www.w3.org/2000/svg">
<path d="M20.0205 24.734V24.3357C20.0205 24.0569 20.1641 23.9175 20.4513 23.9175H22.1952C22.4824 23.9175 22.626 24.0569 22.626 24.3357V24.495C22.626 24.9995 22.7286 25.3447 22.9337 25.5306C23.1389 25.7165 23.515 25.8094 24.0621 25.8094H25.0263C25.5597 25.8094 25.929 25.7098 26.1342 25.5107C26.353 25.3115 26.4624 24.9398 26.4624 24.3954V24.1565C26.4624 23.7715 26.2983 23.4794 25.97 23.2802C25.6555 23.0678 25.2588 22.9417 24.7801 22.9018C24.3014 22.862 23.7817 22.789 23.2209 22.6828C22.6739 22.5633 22.161 22.4173 21.6823 22.2447C21.2036 22.0588 20.8001 21.707 20.4719 21.1892C20.1573 20.6581 20 19.981 20 19.1579V18.4609C20 17.4253 20.3009 16.6221 20.9027 16.0512C21.5045 15.4803 22.3388 15.1949 23.4056 15.1949H25.4572C26.5376 15.1949 27.3788 15.4803 27.9806 16.0512C28.5824 16.6221 28.8833 17.4253 28.8833 18.4609V18.8393C28.8833 19.1181 28.7396 19.2575 28.4524 19.2575H26.7086C26.4214 19.2575 26.2778 19.1181 26.2778 18.8393V18.7198C26.2778 18.202 26.1752 17.8502 25.97 17.6643C25.7649 17.4784 25.3888 17.3855 24.8417 17.3855H24.0416C23.4808 17.3855 23.0979 17.4917 22.8927 17.7041C22.7012 17.9033 22.6055 18.3016 22.6055 18.899V19.2774C22.6055 19.9014 23.1662 20.2598 24.2878 20.3528C25.4503 20.4457 26.4829 20.6714 27.3856 21.0299C27.8643 21.229 28.261 21.5875 28.5755 22.1053C28.9038 22.6098 29.0679 23.2603 29.0679 24.0569V24.734C29.0679 25.7696 28.767 26.5728 28.1652 27.1437C27.5634 27.7146 26.7291 28 25.6623 28H23.4261C22.3593 28 21.525 27.7146 20.9232 27.1437C20.3214 26.5728 20.0205 25.7696 20.0205 24.734Z" fill="#0A1931"/>
<path d="M35.388 28H33.0492C32.7893 28 32.6252 27.8606 32.5568 27.5818L30.5053 18.2617C30.4506 17.9829 30.5531 17.8435 30.813 17.8435H32.7825C33.0834 17.8435 33.2475 17.9829 33.2749 18.2617L34.1981 25.0725H34.3622L35.8188 18.2617C35.8598 17.9829 36.0171 17.8435 36.2907 17.8435H38.096C38.3833 17.8435 38.5542 17.9829 38.6089 18.2617L40.0245 25.0725H40.1886L41.1324 18.2617C41.1734 17.9829 41.3375 17.8435 41.6247 17.8435H43.5942C43.8678 17.8435 43.9703 17.9829 43.902 18.2617L41.8504 27.5818C41.7957 27.8606 41.6316 28 41.358 28H39.0192C38.7457 28 38.5816 27.8606 38.5269 27.5818L37.2754 20.8506H37.1113L35.8804 27.5818C35.8393 27.8606 35.6752 28 35.388 28Z" fill="#0A1931"/>
<path d="M53.2015 28H48.6675C47.587 28 46.7527 27.7212 46.1646 27.1636C45.5765 26.606 45.2824 25.8028 45.2824 24.7539V21.0896C45.2824 20.0408 45.5765 19.2376 46.1646 18.6799C46.7527 18.1223 47.587 17.8435 48.6675 17.8435H50.2882C51.3687 17.8435 52.203 18.1223 52.7911 18.6799C53.3793 19.2376 53.6733 20.0408 53.6733 21.0896V23.6188C53.6733 23.8976 53.5297 24.037 53.2425 24.037H48.0931C47.929 24.037 47.8469 24.11 47.8469 24.256V24.6942C47.8469 25.1057 47.9358 25.4045 48.1136 25.5903C48.3051 25.7629 48.6196 25.8492 49.0573 25.8492H53.2015C53.4887 25.8492 53.6323 25.9953 53.6323 26.2873V27.6017C53.6323 27.7477 53.5981 27.854 53.5297 27.9203C53.475 27.9734 53.3656 28 53.2015 28ZM48.0931 22.3442H50.8832C51.0336 22.3442 51.1089 22.2712 51.1089 22.1252V21.1693C51.1089 20.7444 51.02 20.4457 50.8422 20.2731C50.6644 20.1005 50.3566 20.0142 49.919 20.0142H49.0573C48.6196 20.0142 48.3119 20.1005 48.1341 20.2731C47.9563 20.4457 47.8674 20.7444 47.8674 21.1693V22.1252C47.8674 22.2712 47.9426 22.3442 48.0931 22.3442Z" fill="#0A1931"/>
<path d="M63.3391 28H58.8051C57.7246 28 56.8903 27.7212 56.3022 27.1636C55.7141 26.606 55.42 25.8028 55.42 24.7539V21.0896C55.42 20.0408 55.7141 19.2376 56.3022 18.6799C56.8903 18.1223 57.7246 17.8435 58.8051 17.8435H60.4258C61.5063 17.8435 62.3406 18.1223 62.9287 18.6799C63.5169 19.2376 63.8109 20.0408 63.8109 21.0896V23.6188C63.8109 23.8976 63.6673 24.037 63.3801 24.037H58.2307C58.0665 24.037 57.9845 24.11 57.9845 24.256V24.6942C57.9845 25.1057 58.0734 25.4045 58.2512 25.5903C58.4427 25.7629 58.7572 25.8492 59.1949 25.8492H63.3391C63.6263 25.8492 63.7699 25.9953 63.7699 26.2873V27.6017C63.7699 27.7477 63.7357 27.854 63.6673 27.9203C63.6126 27.9734 63.5032 28 63.3391 28ZM58.2307 22.3442H61.0208C61.1712 22.3442 61.2465 22.2712 61.2465 22.1252V21.1693C61.2465 20.7444 61.1576 20.4457 60.9798 20.2731C60.802 20.1005 60.4942 20.0142 60.0566 20.0142H59.1949C58.7572 20.0142 58.4495 20.1005 58.2717 20.2731C58.0939 20.4457 58.005 20.7444 58.005 21.1693V22.1252C58.005 22.2712 58.0802 22.3442 58.2307 22.3442Z" fill="#0A1931"/>
<path d="M65.9884 20.0341H65.1678C65.0037 20.0341 64.8874 20.0076 64.8191 19.9545C64.7644 19.9014 64.737 19.7952 64.737 19.6358V18.2617C64.737 17.9829 64.8806 17.8435 65.1678 17.8435H65.9884C66.1389 17.8435 66.2141 17.7705 66.2141 17.6245V15.7326C66.2141 15.4538 66.3646 15.3144 66.6655 15.3144H68.3888C68.676 15.3144 68.8196 15.4538 68.8196 15.7326V17.6245C68.8196 17.7705 68.9017 17.8435 69.0658 17.8435H70.666C70.9532 17.8435 71.0968 17.9829 71.0968 18.2617V19.6358C71.0968 19.7819 71.0626 19.8881 70.9943 19.9545C70.9396 20.0076 70.8301 20.0341 70.666 20.0341H69.0658C68.9017 20.0341 68.8196 20.1072 68.8196 20.2532V24.6543C68.8196 25.0659 68.9153 25.3646 69.1068 25.5505C69.2983 25.7231 69.6129 25.8094 70.0505 25.8094H70.8712C71.1584 25.8094 71.302 25.9488 71.302 26.2276V27.6017C71.302 27.7477 71.2678 27.854 71.1994 27.9203C71.1447 27.9734 71.0353 28 70.8712 28H69.6197C68.5392 28 67.6981 27.7212 67.0963 27.1636C66.5082 26.606 66.2141 25.8094 66.2141 24.7738V20.2532C66.2141 20.1072 66.1389 20.0341 65.9884 20.0341Z" fill="#0A1931"/>
<path d="M84.8888 28H78.1391C77.8519 28 77.7083 27.8606 77.7083 27.5818V15.6131C77.7083 15.3343 77.8519 15.1949 78.1391 15.1949H79.883C80.1702 15.1949 80.3138 15.3343 80.3138 15.6131V25.5704C80.3138 25.7165 80.3959 25.7895 80.56 25.7895H84.8888C85.1623 25.7895 85.2991 25.9355 85.2991 26.2276V27.5818C85.2991 27.8606 85.1623 28 84.8888 28Z" fill="#0A1931"/>
<path d="M86.8217 16.1309V14.3983C86.8217 14.1328 86.9585 14 87.232 14H89.0169C89.2904 14 89.4272 14.1261 89.4272 14.3784V16.1309C89.4272 16.3964 89.2904 16.5292 89.0169 16.5292H87.232C86.9585 16.5292 86.8217 16.3964 86.8217 16.1309ZM86.8217 27.5818V18.2617C86.8217 17.9829 86.9585 17.8435 87.232 17.8435H88.9964C89.2836 17.8435 89.4272 17.9829 89.4272 18.2617V27.5818C89.4272 27.7544 89.393 27.8672 89.3246 27.9203C89.2699 27.9734 89.1673 28 89.0169 28H87.2526C86.9653 28 86.8217 27.8606 86.8217 27.5818Z" fill="#0A1931"/>
<path d="M93.9626 28H92.2188C91.9316 28 91.7879 27.8606 91.7879 27.5818V18.2617C91.7879 17.9829 91.9316 17.8435 92.2188 17.8435H93.9626C94.2498 17.8435 94.3934 17.9829 94.3934 18.2617V18.9189H94.4755C94.7764 18.202 95.4466 17.8435 96.486 17.8435H97.1425C99.2898 17.8435 100.363 18.9256 100.363 21.0896V27.5818C100.363 27.8606 100.213 28 99.9121 28H98.1888C97.9016 28 97.758 27.8606 97.758 27.5818V21.2091C97.758 20.7843 97.6622 20.4855 97.4708 20.3129C97.293 20.1271 96.9852 20.0341 96.5476 20.0341H95.809C94.8653 20.0341 94.3934 20.5386 94.3934 21.5477V27.5818C94.3934 27.8606 94.2498 28 93.9626 28Z" fill="#0A1931"/>
<path d="M108.517 17.8435H110.507C110.671 17.8435 110.781 17.89 110.835 17.9829C110.89 18.0759 110.87 18.1954 110.774 18.3414L108.045 22.7027V22.7824L110.897 27.5021C110.979 27.6349 110.986 27.7544 110.917 27.8606C110.849 27.9535 110.726 28 110.548 28H108.784C108.551 28 108.38 27.9734 108.271 27.9203C108.175 27.8672 108.073 27.7544 107.963 27.5818L105.358 23.1408C105.235 22.9284 105.235 22.7093 105.358 22.4836L107.82 18.2418C107.97 17.9763 108.203 17.8435 108.517 17.8435ZM104.701 28H102.957C102.67 28 102.527 27.8606 102.527 27.5818V14.4182C102.527 14.1394 102.67 14 102.957 14H104.701C104.988 14 105.132 14.1394 105.132 14.4182V27.5818C105.132 27.8606 104.988 28 104.701 28Z" fill="#0A1931"/>
<path d="M116.588 24.734V24.3357C116.588 24.0569 116.732 23.9175 117.019 23.9175H118.763C119.05 23.9175 119.194 24.0569 119.194 24.3357V24.495C119.194 24.9995 119.296 25.3447 119.501 25.5306C119.706 25.7165 120.083 25.8094 120.63 25.8094H121.594C122.127 25.8094 122.497 25.7098 122.702 25.5107C122.921 25.3115 123.03 24.9398 123.03 24.3954V24.1565C123.03 23.7715 122.866 23.4794 122.538 23.2802C122.223 23.0678 121.826 22.9417 121.348 22.9018C120.869 22.862 120.349 22.789 119.789 22.6828C119.241 22.5633 118.729 22.4173 118.25 22.2447C117.771 22.0588 117.368 21.707 117.039 21.1892C116.725 20.6581 116.568 19.981 116.568 19.1579V18.4609C116.568 17.4253 116.868 16.6221 117.47 16.0512C118.072 15.4803 118.906 15.1949 119.973 15.1949H122.025C123.105 15.1949 123.946 15.4803 124.548 16.0512C125.15 16.6221 125.451 17.4253 125.451 18.4609V18.8393C125.451 19.1181 125.307 19.2575 125.02 19.2575H123.276C122.989 19.2575 122.845 19.1181 122.845 18.8393V18.7198C122.845 18.202 122.743 17.8502 122.538 17.6643C122.332 17.4784 121.956 17.3855 121.409 17.3855H120.609C120.048 17.3855 119.665 17.4917 119.46 17.7041C119.269 17.9033 119.173 18.3016 119.173 18.899V19.2774C119.173 19.9014 119.734 20.2598 120.855 20.3528C122.018 20.4457 123.051 20.6714 123.953 21.0299C124.432 21.229 124.829 21.5875 125.143 22.1053C125.471 22.6098 125.635 23.2603 125.635 24.0569V24.734C125.635 25.7696 125.335 26.5728 124.733 27.1437C124.131 27.7146 123.297 28 122.23 28H119.994C118.927 28 118.093 27.7146 117.491 27.1437C116.889 26.5728 116.588 25.7696 116.588 24.734Z" fill="#0A1931"/>
<path d="M127.996 20.0341H127.175C127.011 20.0341 126.895 20.0076 126.827 19.9545C126.772 19.9014 126.745 19.7952 126.745 19.6358V18.2617C126.745 17.9829 126.888 17.8435 127.175 17.8435H127.996C128.147 17.8435 128.222 17.7705 128.222 17.6245V15.7326C128.222 15.4538 128.372 15.3144 128.673 15.3144H130.396C130.684 15.3144 130.827 15.4538 130.827 15.7326V17.6245C130.827 17.7705 130.909 17.8435 131.073 17.8435H132.674C132.961 17.8435 133.104 17.9829 133.104 18.2617V19.6358C133.104 19.7819 133.07 19.8881 133.002 19.9545C132.947 20.0076 132.838 20.0341 132.674 20.0341H131.073C130.909 20.0341 130.827 20.1072 130.827 20.2532V24.6543C130.827 25.0659 130.923 25.3646 131.114 25.5505C131.306 25.7231 131.62 25.8094 132.058 25.8094H132.879C133.166 25.8094 133.31 25.9488 133.31 26.2276V27.6017C133.31 27.7477 133.275 27.854 133.207 27.9203C133.152 27.9734 133.043 28 132.879 28H131.627C130.547 28 129.706 27.7212 129.104 27.1636C128.516 26.606 128.222 25.8094 128.222 24.7738V20.2532C128.222 20.1072 128.147 20.0341 127.996 20.0341Z" fill="#0A1931"/>
<path d="M138.778 28H138.101C137.048 28 136.248 27.7212 135.7 27.1636C135.167 26.606 134.9 25.8028 134.9 24.7539V18.2617C134.9 17.9829 135.044 17.8435 135.331 17.8435H137.075C137.362 17.8435 137.506 17.9829 137.506 18.2617V24.6344C137.506 25.0593 137.595 25.3646 137.773 25.5505C137.964 25.7231 138.272 25.8094 138.696 25.8094H139.455C140.399 25.8094 140.87 25.3049 140.87 24.2959V18.2617C140.87 17.9829 141.014 17.8435 141.301 17.8435H143.025C143.325 17.8435 143.476 17.9829 143.476 18.2617V27.5818C143.476 27.8606 143.325 28 143.025 28H141.301C141.014 28 140.87 27.8606 140.87 27.5818V26.9246H140.788C140.638 27.2831 140.371 27.5552 139.988 27.7411C139.605 27.9137 139.202 28 138.778 28Z" fill="#0A1931"/>
<path d="M149.578 28H148.737C147.684 28 146.884 27.7212 146.337 27.1636C145.803 26.606 145.536 25.8028 145.536 24.7539V21.0896C145.536 20.0408 145.803 19.2376 146.337 18.6799C146.884 18.1223 147.684 17.8435 148.737 17.8435H149.578C150.002 17.8435 150.405 17.9365 150.788 18.1223C151.171 18.2949 151.438 18.5605 151.589 18.9189H151.671V14.4182C151.671 14.1394 151.814 14 152.101 14H153.845C154.132 14 154.276 14.1394 154.276 14.4182V27.5818C154.276 27.8606 154.132 28 153.845 28H152.101C151.814 28 151.671 27.8606 151.671 27.5818V26.9246H151.589C151.438 27.2831 151.171 27.5552 150.788 27.7411C150.405 27.9137 150.002 28 149.578 28ZM151.671 24.2959V21.5477C151.671 20.5386 151.199 20.0341 150.255 20.0341H149.332C148.894 20.0341 148.586 20.1271 148.409 20.3129C148.231 20.4855 148.142 20.7843 148.142 21.2091V24.6344C148.142 25.0593 148.231 25.3646 148.409 25.5505C148.586 25.7231 148.894 25.8094 149.332 25.8094H150.255C151.199 25.8094 151.671 25.3049 151.671 24.2959Z" fill="#0A1931"/>
<path d="M156.643 16.1309V14.3983C156.643 14.1328 156.78 14 157.053 14H158.838C159.112 14 159.248 14.1261 159.248 14.3784V16.1309C159.248 16.3964 159.112 16.5292 158.838 16.5292H157.053C156.78 16.5292 156.643 16.3964 156.643 16.1309ZM156.643 27.5818V18.2617C156.643 17.9829 156.78 17.8435 157.053 17.8435H158.818C159.105 17.8435 159.248 17.9829 159.248 18.2617V27.5818C159.248 27.7544 159.214 27.8672 159.146 27.9203C159.091 27.9734 158.989 28 158.838 28H157.074C156.787 28 156.643 27.8606 156.643 27.5818Z" fill="#0A1931"/>
<path d="M166.615 28H164.789C163.709 28 162.874 27.7212 162.286 27.1636C161.698 26.606 161.404 25.8028 161.404 24.7539V21.0896C161.404 20.0408 161.698 19.2376 162.286 18.6799C162.874 18.1223 163.709 17.8435 164.789 17.8435H166.615C167.682 17.8435 168.509 18.129 169.097 18.6999C169.699 19.2575 170 20.0541 170 21.0896V24.7539C170 25.7895 169.699 26.5927 169.097 27.1636C168.509 27.7212 167.682 28 166.615 28ZM165.179 25.8293H166.225C166.663 25.8293 166.971 25.743 167.148 25.5704C167.34 25.3978 167.436 25.0991 167.436 24.6743V21.1693C167.436 20.7444 167.34 20.4457 167.148 20.2731C166.971 20.1005 166.663 20.0142 166.225 20.0142H165.179C164.741 20.0142 164.433 20.1005 164.256 20.2731C164.078 20.4457 163.989 20.7444 163.989 21.1693V24.6743C163.989 25.0991 164.078 25.3978 164.256 25.5704C164.433 25.743 164.741 25.8293 165.179 25.8293Z" fill="#0A1931"/>
<path fill-rule="evenodd" clip-rule="evenodd" d="M9.6 28.9H9.2C11 31.8 12.9 35.3 12.2 35.9C11.4896 36.6104 10.9195 36.0942 10.3235 35.5548C9.91268 35.1829 9.48964 34.8 9 34.8C8.33939 34.8 7.89092 35.2849 7.48775 35.7208C7.15857 36.0767 6.85959 36.4 6.5 36.4C6.07256 36.4 5.73534 36.0391 5.38122 35.6601C4.98972 35.2411 4.57757 34.8 4 34.8C3.54488 34.8 3.08976 35.1766 2.64172 35.5474C2.00687 36.0727 1.38625 36.5863 0.8 36C0.2 35.4 2.1 31.9 3.9 29H3.5C1.6 28.9 0 27.4 0 25.4V10.9C0 9 1.6 7.4 3.5 7.4H3.8C2.1 4.5 0.2 1 0.8 0.4C1.44042 -0.24042 2.01305 0.271613 2.61656 0.811258C3.04965 1.19852 3.49864 1.6 4 1.6C4.66061 1.6 5.10908 1.1151 5.51225 0.679188C5.84143 0.323266 6.14041 0 6.5 0C6.86822 0 7.19407 0.338968 7.54581 0.704866C7.95826 1.13392 8.40631 1.6 9 1.6C9.45127 1.6 9.8857 1.22975 10.3171 0.862066C10.9373 0.333493 11.5513 -0.189759 12.2 0.4C12.8 1 10.9 4.5 9.1 7.4H9.5C11.5 7.4 13 9 13 10.9V25.4C13.1 27.4 11.5 28.9 9.6 28.9ZM8.00005 19.5V20.3C8.00005 20.7 7.60005 21.1 7.20005 21.1H4.90005C3.20005 21.1 1.80005 19.7 1.80005 18V12.5C1.80005 10.8 3.20005 9.40002 4.90005 9.40002H8.20005C9.90005 9.40002 11.3 10.8 11.3 12.5V15.3C11.3 15.5 10.9 15.6 10.8 15.4C10.5 15 10 14.6 9.40005 14.5C9.30005 14.5 9.10005 14.4 9.10005 14.2V12.9C9.10005 12 8.40005 11.3 7.50005 11.3H5.60005C4.70005 11.3 4.00005 12 4.00005 12.9V17.1C4.00005 18 4.70005 18.7 5.60005 18.7H7.10005C7.60005 18.7 8.00005 19.1 8.00005 19.5ZM5.00005 16V16.8C5.00005 17.2 5.40005 17.5 5.80005 17.5H7.50005C8.40005 17.5 9.10005 18.2 9.10005 19.1V23.3C9.10005 24.2 8.40005 24.9 7.50005 24.9H5.60005C4.70005 24.9 4.00005 24.2 4.00005 23.3V22C4.00005 21.8 3.80005 21.7 3.70005 21.7C3.10005 21.6 2.60005 21.2 2.30005 20.8C2.20005 20.6 1.80005 20.7 1.80005 20.9V23.8C1.80005 25.5 3.20005 26.9 4.90005 26.9H8.10005C9.80005 26.9 11.2 25.5 11.2 23.8V18.3C11.2 16.6 9.80005 15.2 8.10005 15.2H5.80005C5.40005 15.2 5.00005 15.6 5.00005 16Z" fill="#0A1931"/>
</svg>
