<svg width="14" height="37" viewBox="0 0 14 37" fill="none" xmlns="http://www.w3.org/2000/svg">
<path d="M9.2089 28.775H8.98419L9.10269 28.9659C10.0018 30.4145 10.9238 32.0096 11.5331 33.3154C11.8382 33.9691 12.0621 34.5443 12.1669 34.9896C12.2194 35.2126 12.2403 35.3959 12.2301 35.5369C12.2198 35.6785 12.1797 35.7604 12.1275 35.8051L12.1273 35.8048L12.1205 35.8116C11.9539 35.9782 11.8037 36.0648 11.6678 36.1008C11.5333 36.1364 11.4027 36.1251 11.2692 36.0782C10.9922 35.9806 10.7204 35.7374 10.4163 35.4621L10.4122 35.4584C10.2096 35.275 9.99505 35.0808 9.76843 34.9332C9.53934 34.784 9.28724 34.675 9.0089 34.675C8.29339 34.675 7.81149 35.1962 7.41917 35.6205L7.40488 35.6359C7.23839 35.816 7.08856 35.9775 6.93735 36.0953C6.78712 36.2123 6.64927 36.275 6.5089 36.275C6.33261 36.275 6.16757 36.2011 5.99739 36.0725C5.82565 35.9426 5.66037 35.7663 5.48145 35.5748L5.47719 35.5702C5.28436 35.3638 5.07661 35.1415 4.84269 34.9718C4.60473 34.7991 4.33206 34.675 4.0089 34.675C3.7475 34.675 3.49622 34.7828 3.26124 34.9284C3.0273 35.0734 2.79606 35.2648 2.57476 35.4479L2.57092 35.4511C2.24836 35.718 1.95106 35.9623 1.66587 36.0742C1.52665 36.1288 1.39796 36.1484 1.27606 36.1273C1.15521 36.1064 1.02897 36.0433 0.897284 35.9116L0.808896 36L0.897284 35.9116C0.855996 35.8703 0.822782 35.7896 0.820996 35.6444C0.819241 35.5017 0.848251 35.3168 0.907814 35.0931C1.02673 34.6464 1.26035 34.0702 1.57175 33.4162C2.19383 32.1099 3.11603 30.5144 4.0151 29.0659L4.1336 28.875H3.9089H3.5122C1.67391 28.7766 0.133896 27.3264 0.133896 25.4V10.9C0.133896 9.06904 1.67793 7.525 3.5089 7.525H3.8089H4.02707L3.91673 7.33679C3.06698 5.88721 2.16953 4.29148 1.55967 2.98464C1.25439 2.33048 1.02379 1.75415 0.906353 1.30729C0.847532 1.08347 0.818867 0.898533 0.820799 0.755793C0.822765 0.610485 0.855977 0.529696 0.897284 0.488388C1.04487 0.340806 1.18037 0.267611 1.30484 0.240287C1.42887 0.213062 1.55403 0.228717 1.68596 0.279701C1.95876 0.385126 2.23459 0.629445 2.54213 0.904439L2.5461 0.907988C2.75987 1.09914 2.98635 1.30165 3.22348 1.45568C3.46268 1.61104 3.72429 1.725 4.0089 1.725C4.7244 1.725 5.2063 1.20381 5.59862 0.779513L5.61291 0.764062C5.7794 0.584051 5.92923 0.422532 6.08044 0.30473C6.23067 0.187691 6.36852 0.125 6.5089 0.125C6.65351 0.125 6.80038 0.191481 6.96228 0.314694C7.12451 0.438144 7.2869 0.606648 7.46459 0.791493L7.46866 0.795725C7.67214 1.00739 7.89391 1.2381 8.14109 1.41498C8.3917 1.59432 8.67726 1.725 9.0089 1.725C9.26855 1.725 9.51386 1.61872 9.74173 1.47455C9.96819 1.33127 10.1903 1.14201 10.4032 0.960548L10.4071 0.957202C10.7222 0.688609 11.014 0.441854 11.3026 0.327932C11.4435 0.272362 11.5773 0.251288 11.7083 0.27246C11.838 0.293428 11.9756 0.357567 12.1223 0.490245C12.1628 0.532077 12.195 0.612582 12.1968 0.755639C12.1986 0.898293 12.1695 1.08316 12.11 1.30691C11.9911 1.75359 11.7574 2.32981 11.446 2.98376C10.824 4.29011 9.90176 5.88558 9.00269 7.33408L8.88419 7.525H9.1089H9.5089C11.4375 7.525 12.8839 9.06669 12.8839 10.9V25.4H12.8837L12.8841 25.4062C12.9802 27.3289 11.4435 28.775 9.6089 28.775H9.2089ZM8.13394 20.3V19.5C8.13394 19.0218 7.66837 18.575 7.10894 18.575H5.60894C4.77798 18.575 4.13394 17.931 4.13394 17.1V12.9C4.13394 12.0691 4.77798 11.425 5.60894 11.425H7.50894C8.33991 11.425 8.98394 12.0691 8.98394 12.9V14.2C8.98394 14.3465 9.05854 14.4548 9.14336 14.5226C9.22034 14.5842 9.31634 14.6214 9.39691 14.6248C9.9488 14.7197 10.417 15.0893 10.703 15.4672C10.7943 15.6336 10.9918 15.6513 11.1236 15.622C11.1965 15.6058 11.2698 15.5727 11.3275 15.522C11.3857 15.4707 11.4339 15.3952 11.4339 15.3V12.5C11.4339 10.731 9.97798 9.27502 8.20894 9.27502H4.90895C3.13991 9.27502 1.68394 10.731 1.68394 12.5V18C1.68394 19.7691 3.13991 21.225 4.90895 21.225H7.20894C7.4496 21.225 7.67979 21.106 7.84733 20.9384C8.01488 20.7709 8.13394 20.5407 8.13394 20.3ZM4.88394 16V16.8C4.88394 17.0442 5.00637 17.2522 5.17892 17.396C5.35083 17.5393 5.57898 17.625 5.80895 17.625H7.50894C8.33991 17.625 8.98394 18.269 8.98394 19.1V23.3C8.98394 24.131 8.33991 24.775 7.50894 24.775H5.60894C4.77798 24.775 4.13394 24.131 4.13394 23.3V22C4.13394 21.8535 4.05935 21.7453 3.97453 21.6774C3.89755 21.6158 3.80156 21.5787 3.72099 21.5753C3.1691 21.4803 2.70085 21.1107 2.41484 20.7328C2.32355 20.5665 2.12609 20.5487 1.99433 20.578C1.92139 20.5942 1.84804 20.6273 1.79043 20.678C1.73218 20.7293 1.68394 20.8049 1.68394 20.9V23.8C1.68394 25.569 3.13991 27.025 4.90895 27.025H8.10894C9.87798 27.025 11.3339 25.569 11.3339 23.8V18.3C11.3339 16.531 9.87798 15.075 8.10894 15.075H5.80894C5.56829 15.075 5.3381 15.1941 5.17056 15.3616C5.00301 15.5292 4.88394 15.7594 4.88394 16Z" stroke="white" stroke-width="0.25"/>
</svg>
